<?xml version="1.0" encoding="utf-8"?>
<!-- Generator: Adobe Illustrator 16.0.0, SVG Export Plug-In . SVG Version: 6.00 Build 0)  -->
<!DOCTYPE svg PUBLIC "-//W3C//DTD SVG 1.1//EN" "http://www.w3.org/Graphics/SVG/1.1/DTD/svg11.dtd">
<svg version="1.1" xmlns="http://www.w3.org/2000/svg" xmlns:xlink="http://www.w3.org/1999/xlink" x="0px" y="0px"
	 width="3036.304px" height="1998.202px" viewBox="0 0 3036.304 1998.202" enable-background="new 0 0 3036.304 1998.202"
	 xml:space="preserve">
<g id="Layer_1">
	<polygon fill="#F4F4F4" points="1254.107,665.145 1176.214,710.114 1098.321,665.145 1098.321,575.202 1176.214,530.232 
		1254.107,575.202 	"/>
	<polygon fill="#F4F4F4" points="812.519,516.588 734.629,561.558 656.737,516.588 656.737,426.646 734.629,381.676 
		812.519,426.646 	"/>
	<polygon fill="#F4F4F4" points="898.777,366.979 820.884,411.952 742.991,366.979 742.991,277.038 820.884,232.066 
		898.777,277.038 	"/>
	<polygon fill="#F4F4F4" points="1254.107,366.98 1176.215,411.95 1098.322,366.98 1098.322,277.038 1176.215,232.068 
		1254.107,277.038 	"/>
	<polygon fill="#F4F4F4" points="989.008,516.587 911.118,561.559 833.225,516.587 833.225,426.646 911.118,381.675 
		989.008,426.646 	"/>
	<polygon fill="#F4F4F4" points="1076.087,366.979 998.194,411.952 920.302,366.979 920.302,277.038 998.194,232.066 
		1076.087,277.038 	"/>
	<polygon fill="#F4F4F4" points="1165.638,516.587 1087.747,561.559 1009.855,516.587 1009.855,426.646 1087.747,381.675 
		1165.638,426.646 	"/>
	<polygon fill="#F4F4F4" points="1076.087,665.144 998.195,710.115 920.303,665.144 920.303,575.203 998.195,530.231 
		1076.087,575.203 	"/>
	<polygon fill="#F4F4F4" points="898.776,665.144 820.886,710.115 742.992,665.144 742.992,575.203 820.886,530.231 
		898.776,575.203 	"/>
	<polygon fill="#F4F4F4" points="1342.338,1112.611 1264.445,1157.581 1186.552,1112.611 1186.552,1022.669 1264.445,977.699 
		1342.338,1022.669 	"/>
	<polygon fill="#F4F4F4" points="900.75,964.055 822.86,1009.024 744.968,964.055 744.968,874.112 822.86,829.143 900.75,874.112 	
		"/>
	<polygon fill="#F4F4F4" points="1077.239,964.054 999.349,1009.025 921.456,964.054 921.456,874.113 999.349,829.142 
		1077.239,874.113 	"/>
	<polygon fill="#F4F4F4" points="1253.869,964.054 1175.978,1009.025 1098.086,964.054 1098.086,874.113 1175.978,829.142 
		1253.869,874.113 	"/>
	<polygon fill="#F4F4F4" points="1430.526,964.054 1352.632,1009.025 1274.741,964.054 1274.741,874.112 1352.632,829.142 
		1430.526,874.112 	"/>
	<polygon fill="#F4F4F4" points="987.007,1112.61 909.117,1157.582 831.223,1112.61 831.223,1022.67 909.117,977.698 
		987.007,1022.67 	"/>
	<polygon fill="#F4F4F4" points="1871.185,814.753 1793.291,859.723 1715.398,814.753 1715.398,724.811 1793.291,679.841 
		1871.185,724.811 	"/>
	<polygon fill="#F4F4F4" points="1429.596,666.196 1351.707,711.166 1273.814,666.196 1273.814,576.254 1351.707,531.284 
		1429.596,576.254 	"/>
	<polygon fill="#F4F4F4" points="1606.085,666.195 1528.195,711.167 1450.302,666.195 1450.302,576.255 1528.195,531.283 
		1606.085,576.255 	"/>
	<polygon fill="#F4F4F4" points="1693.164,516.588 1615.271,561.561 1537.38,516.588 1537.38,426.646 1615.271,381.675 
		1693.164,426.646 	"/>
	<polygon fill="#F4F4F4" points="1693.164,814.752 1615.272,859.724 1537.38,814.752 1537.38,724.812 1615.272,679.84 
		1693.164,724.812 	"/>
	<polygon fill="#F4F4F4" points="1959.372,666.195 1881.479,711.167 1803.587,666.195 1803.587,576.254 1881.479,531.283 
		1959.372,576.254 	"/>
	<polygon fill="#F4F4F4" points="1515.854,814.752 1437.963,859.724 1360.069,814.752 1360.069,724.812 1437.963,679.84 
		1515.854,724.812 	"/>
	<polygon fill="#F4F4F4" points="1959.416,1261.694 1881.522,1306.664 1803.63,1261.694 1803.63,1171.752 1881.522,1126.782 
		1959.416,1171.752 	"/>
	<polygon fill="#F4F4F4" points="1517.827,1113.138 1439.938,1158.107 1362.045,1113.138 1362.045,1023.195 1439.938,978.226 
		1517.827,1023.195 	"/>
	<polygon fill="#F4F4F4" points="1781.396,963.529 1703.503,1008.502 1625.61,963.529 1625.61,873.588 1703.503,828.616 
		1781.396,873.588 	"/>
	<polygon fill="#F4F4F4" points="1870.946,1113.137 1793.056,1158.108 1715.164,1113.137 1715.164,1023.196 1793.056,978.225 
		1870.946,1023.196 	"/>
	<polygon fill="#F4F4F4" points="1781.396,1261.693 1703.504,1306.665 1625.611,1261.693 1625.611,1171.753 1703.504,1126.781 
		1781.396,1171.753 	"/>
	<polygon fill="#F4F4F4" points="1604.085,1261.693 1526.194,1306.665 1448.301,1261.693 1448.301,1171.753 1526.194,1126.781 
		1604.085,1171.753 	"/>
	<polygon fill="#F4F4F4" points="727.28,963.529 649.387,1008.499 571.494,963.529 571.494,873.587 649.387,828.617 727.28,873.587 
			"/>
	<polygon fill="#F4F4F4" points="371.95,665.364 294.057,710.337 216.164,665.364 216.164,575.423 294.057,530.451 371.95,575.423 	
		"/>
	<polygon fill="#F4F4F4" points="727.28,665.365 649.388,710.335 571.495,665.365 571.495,575.423 649.388,530.453 727.28,575.423 	
		"/>
	<polygon fill="#F4F4F4" points="462.181,814.972 384.291,859.943 306.398,814.972 306.398,725.031 384.291,680.06 462.181,725.031 
			"/>
	<polygon fill="#F4F4F4" points="549.26,665.364 471.367,710.337 393.475,665.364 393.475,575.423 471.367,530.451 549.26,575.423 	
		"/>
	<polygon fill="#F4F4F4" points="638.811,814.972 560.92,859.943 483.028,814.972 483.028,725.031 560.92,680.06 638.811,725.031 	
		"/>
	<polygon fill="#F4F4F4" points="549.26,963.528 471.368,1008.5 393.476,963.528 393.476,873.588 471.368,828.616 549.26,873.588 	
		"/>
	<polygon fill="#F4F4F4" points="815.468,814.972 737.574,859.943 659.683,814.972 659.683,725.03 737.574,680.06 815.468,725.03 	
		"/>
	<polygon fill="#F4F4F4" points="371.949,963.528 294.059,1008.5 216.165,963.528 216.165,873.588 294.059,828.616 371.949,873.588 
			"/>
	<polygon fill="#F4F4F4" points="815.511,1410.777 737.618,1455.747 659.725,1410.777 659.725,1320.835 737.618,1275.865 
		815.511,1320.835 	"/>
	<polygon fill="#F4F4F4" points="373.923,1262.221 296.033,1307.19 218.141,1262.221 218.141,1172.278 296.033,1127.309 
		373.923,1172.278 	"/>
	<polygon fill="#F4F4F4" points="815.511,1112.613 737.619,1157.583 659.726,1112.613 659.726,1022.671 737.619,977.701 
		815.511,1022.671 	"/>
	<polygon fill="#F4F4F4" points="550.412,1262.22 472.522,1307.191 394.629,1262.22 394.629,1172.279 472.522,1127.308 
		550.412,1172.279 	"/>
	<polygon fill="#F4F4F4" points="637.491,1410.776 559.599,1455.748 481.707,1410.776 481.707,1320.836 559.599,1275.864 
		637.491,1320.836 	"/>
	<polygon fill="#F4F4F4" points="460.18,1410.776 382.29,1455.748 304.396,1410.776 304.396,1320.836 382.29,1275.864 
		460.18,1320.836 	"/>
	<polygon fill="#F4F4F4" points="1430.806,1559.859 1352.913,1604.829 1275.02,1559.859 1275.02,1469.917 1352.913,1424.947 
		1430.806,1469.917 	"/>
	<polygon fill="#F4F4F4" points="989.218,1411.303 911.328,1456.272 833.436,1411.303 833.436,1321.36 911.328,1276.391 
		989.218,1321.36 	"/>
	<polygon fill="#F4F4F4" points="1075.476,1261.694 997.583,1306.667 919.69,1261.694 919.69,1171.753 997.583,1126.781 
		1075.476,1171.753 	"/>
	<polygon fill="#F4F4F4" points="1430.806,1261.695 1352.914,1306.665 1275.021,1261.695 1275.021,1171.753 1352.914,1126.783 
		1430.806,1171.753 	"/>
	<polygon fill="#F4F4F4" points="1342.337,1411.302 1264.446,1456.273 1186.554,1411.302 1186.554,1321.361 1264.446,1276.39 
		1342.337,1321.361 	"/>
	<polygon fill="#F4F4F4" points="1252.786,1559.858 1174.894,1604.83 1097.001,1559.858 1097.001,1469.918 1174.894,1424.946 
		1252.786,1469.918 	"/>
	<polygon fill="#F4F4F4" points="1518.993,1411.302 1441.1,1456.273 1363.208,1411.302 1363.208,1321.36 1441.1,1276.39 
		1518.993,1321.36 	"/>
	<polygon fill="#F4F4F4" points="197.292,367.507 119.403,412.477 41.51,367.507 41.51,277.564 119.403,232.595 197.292,277.564 	
		"/>
	<polygon fill="#F4F4F4" points="283.551,217.898 205.657,262.871 127.765,217.898 127.765,127.957 205.657,82.985 283.551,127.957 
			"/>
	<polygon fill="#F4F4F4" points="638.881,217.899 560.988,262.869 483.095,217.899 483.095,127.957 560.988,82.987 638.881,127.957 
			"/>
	<polygon fill="#F4F4F4" points="373.781,367.506 295.892,412.478 217.999,367.506 217.999,277.565 295.892,232.594 
		373.781,277.565 	"/>
	<polygon fill="#F4F4F4" points="460.86,217.898 382.967,262.871 305.076,217.898 305.076,127.957 382.967,82.985 460.86,127.957 	
		"/>
	<polygon fill="#F4F4F4" points="550.412,367.506 472.521,412.478 394.629,367.506 394.629,277.565 472.521,232.594 
		550.412,277.565 	"/>
	<polygon fill="#F4F4F4" points="727.068,367.506 649.175,412.478 571.283,367.506 571.283,277.564 649.175,232.594 
		727.068,277.564 	"/>
	<polygon fill="#F4F4F4" points="283.55,516.063 205.659,561.034 127.766,516.063 127.766,426.122 205.659,381.15 283.55,426.122 	
		"/>
	<polygon fill="#F4F4F4" points="2489.188,963.529 2411.295,1008.499 2333.402,963.529 2333.402,873.587 2411.295,828.617 
		2489.188,873.587 	"/>
	<polygon fill="#F4F4F4" points="2047.601,814.973 1969.71,859.942 1891.817,814.973 1891.817,725.03 1969.71,680.061 
		2047.601,725.03 	"/>
	<polygon fill="#F4F4F4" points="2133.858,665.364 2055.965,710.337 1978.072,665.364 1978.072,575.423 2055.965,530.451 
		2133.858,575.423 	"/>
	<polygon fill="#F4F4F4" points="2489.188,665.365 2411.296,710.335 2333.403,665.365 2333.403,575.423 2411.296,530.453 
		2489.188,575.423 	"/>
	<polygon fill="#F4F4F4" points="2224.089,814.972 2146.199,859.943 2068.306,814.972 2068.306,725.031 2146.199,680.06 
		2224.089,725.031 	"/>
	<polygon fill="#F4F4F4" points="2311.168,665.364 2233.274,710.337 2155.384,665.364 2155.384,575.423 2233.274,530.451 
		2311.168,575.423 	"/>
	<polygon fill="#F4F4F4" points="2400.72,814.972 2322.828,859.943 2244.937,814.972 2244.937,725.031 2322.828,680.06 
		2400.72,725.031 	"/>
	<polygon fill="#F4F4F4" points="2311.168,963.528 2233.276,1008.5 2155.384,963.528 2155.384,873.588 2233.276,828.616 
		2311.168,873.588 	"/>
	<polygon fill="#F4F4F4" points="2577.376,814.972 2499.482,859.943 2421.591,814.972 2421.591,725.03 2499.482,680.06 
		2577.376,725.03 	"/>
	<polygon fill="#F4F4F4" points="2577.419,1410.777 2499.526,1455.747 2421.634,1410.777 2421.634,1320.835 2499.526,1275.865 
		2577.419,1320.835 	"/>
	<polygon fill="#F4F4F4" points="2135.831,1262.221 2057.941,1307.19 1980.049,1262.221 1980.049,1172.278 2057.941,1127.309 
		2135.831,1172.278 	"/>
	<polygon fill="#F4F4F4" points="2222.089,1112.612 2144.196,1157.585 2066.304,1112.612 2066.304,1022.671 2144.196,977.699 
		2222.089,1022.671 	"/>
	<polygon fill="#F4F4F4" points="2577.419,1112.613 2499.526,1157.583 2421.634,1112.613 2421.634,1022.671 2499.526,977.701 
		2577.419,1022.671 	"/>
	<polygon fill="#F4F4F4" points="2399.399,1112.612 2321.506,1157.585 2243.614,1112.612 2243.614,1022.671 2321.506,977.699 
		2399.399,1022.671 	"/>
	<polygon fill="#F4F4F4" points="2399.399,1410.776 2321.507,1455.748 2243.614,1410.776 2243.614,1320.836 2321.507,1275.864 
		2399.399,1320.836 	"/>
	<polygon fill="#F4F4F4" points="2222.089,1410.776 2144.198,1455.748 2066.304,1410.776 2066.304,1320.836 2144.198,1275.864 
		2222.089,1320.836 	"/>
	<polygon fill="#F4F4F4" points="1692.317,1410.777 1614.423,1455.75 1536.53,1410.777 1536.53,1320.836 1614.423,1275.864 
		1692.317,1320.836 	"/>
	<polygon fill="#F4F4F4" points="2047.647,1410.778 1969.755,1455.748 1891.861,1410.778 1891.861,1320.836 1969.755,1275.866 
		2047.647,1320.836 	"/>
	<polygon fill="#F4F4F4" points="1782.548,1560.385 1704.657,1605.356 1626.765,1560.385 1626.765,1470.444 1704.657,1425.473 
		1782.548,1470.444 	"/>
	<polygon fill="#F4F4F4" points="1869.626,1410.777 1791.733,1455.75 1713.842,1410.777 1713.842,1320.836 1791.733,1275.864 
		1869.626,1320.836 	"/>
	<polygon fill="#F4F4F4" points="1959.178,1560.385 1881.286,1605.356 1803.396,1560.385 1803.396,1470.444 1881.286,1425.473 
		1959.178,1470.444 	"/>
	<polygon fill="#F4F4F4" points="1869.626,1708.941 1791.735,1753.913 1713.843,1708.941 1713.843,1619.001 1791.735,1574.029 
		1869.626,1619.001 	"/>
	<polygon fill="#F4F4F4" points="2135.835,1560.385 2057.94,1605.356 1980.05,1560.385 1980.05,1470.443 2057.94,1425.473 
		2135.835,1470.443 	"/>
	<polygon fill="#F4F4F4" points="1782.786,366.981 1704.892,411.951 1626.999,366.981 1626.999,277.039 1704.892,232.069 
		1782.786,277.039 	"/>
	<polygon fill="#F4F4F4" points="811.555,217.897 733.661,262.87 655.769,217.897 655.769,127.956 733.661,82.984 811.555,127.956 	
		"/>
	<polygon fill="#F4F4F4" points="1166.885,217.898 1088.993,262.868 1011.099,217.898 1011.099,127.956 1088.993,82.986 
		1166.885,127.956 	"/>
	<polygon fill="#F4F4F4" points="1517.687,218.424 1439.796,263.396 1361.903,218.424 1361.903,128.483 1439.796,83.512 
		1517.687,128.483 	"/>
	<polygon fill="#F4F4F4" points="988.864,217.897 910.971,262.87 833.08,217.897 833.08,127.956 910.971,82.984 988.864,127.956 	
		"/>
	<polygon fill="#F4F4F4" points="1694.316,218.424 1616.425,263.396 1538.534,218.424 1538.534,128.483 1616.425,83.512 
		1694.316,128.483 	"/>
	<polygon fill="#F4F4F4" points="1604.765,366.98 1526.874,411.952 1448.981,366.98 1448.981,277.04 1526.874,232.068 
		1604.765,277.04 	"/>
	<polygon fill="#F4F4F4" points="1870.974,218.424 1793.079,263.396 1715.188,218.424 1715.188,128.482 1793.079,83.512 
		1870.974,128.482 	"/>
	<polygon fill="#F4F4F4" points="2400.788,516.063 2322.896,561.032 2245.003,516.063 2245.003,426.12 2322.896,381.15 
		2400.788,426.12 	"/>
	<polygon fill="#F4F4F4" points="2045.458,217.897 1967.565,262.87 1889.673,217.897 1889.673,127.956 1967.565,82.984 
		2045.458,127.956 	"/>
	<polygon fill="#F4F4F4" points="2400.788,217.898 2322.896,262.868 2245.003,217.898 2245.003,127.956 2322.896,82.986 
		2400.788,127.956 	"/>
	<polygon fill="#F4F4F4" points="2222.769,217.897 2144.875,262.87 2066.983,217.897 2066.983,127.956 2144.875,82.984 
		2222.769,127.956 	"/>
	<polygon fill="#F4F4F4" points="2312.319,367.505 2234.429,412.477 2156.536,367.505 2156.536,277.564 2234.429,232.593 
		2312.319,277.564 	"/>
	<polygon fill="#F4F4F4" points="2222.769,516.062 2144.876,561.033 2066.983,516.062 2066.983,426.121 2144.876,381.149 
		2222.769,426.121 	"/>
	<polygon fill="#F4F4F4" points="2488.976,367.505 2411.083,412.477 2333.19,367.505 2333.19,277.563 2411.083,232.593 
		2488.976,277.563 	"/>
	<polygon fill="#F4F4F4" points="2045.458,516.062 1967.567,561.033 1889.673,516.062 1889.673,426.121 1967.567,381.149 
		2045.458,426.121 	"/>
	<polygon fill="#F4F4F4" points="462.154,1709.469 384.264,1754.438 306.372,1709.469 306.372,1619.526 384.264,1574.557 
		462.154,1619.526 	"/>
	<polygon fill="#F4F4F4" points="903.742,1559.861 825.85,1604.831 747.957,1559.861 747.957,1469.919 825.85,1424.949 
		903.742,1469.919 	"/>
	<polygon fill="#F4F4F4" points="638.643,1709.468 560.753,1754.439 482.86,1709.468 482.86,1619.527 560.753,1574.556 
		638.643,1619.527 	"/>
	<polygon fill="#F4F4F4" points="815.273,1709.468 737.382,1754.439 659.49,1709.468 659.49,1619.527 737.382,1574.556 
		815.273,1619.527 	"/>
	<polygon fill="#F4F4F4" points="725.722,1858.024 647.83,1902.996 569.938,1858.024 569.938,1768.084 647.83,1723.112 
		725.722,1768.084 	"/>
	<polygon fill="#F4F4F4" points="991.93,1709.468 914.036,1754.439 836.145,1709.468 836.145,1619.526 914.036,1574.556 
		991.93,1619.526 	"/>
	<polygon fill="#F4F4F4" points="2137.081,1858.552 2059.188,1903.521 1981.295,1858.552 1981.295,1768.609 2059.188,1723.64 
		2137.081,1768.609 	"/>
	<polygon fill="#F4F4F4" points="1075.472,1858.552 997.583,1903.521 919.69,1858.552 919.69,1768.609 997.583,1723.64 
		1075.472,1768.609 	"/>
	<polygon fill="#F4F4F4" points="1161.73,1708.943 1083.837,1753.916 1005.944,1708.943 1005.944,1619.002 1083.837,1574.03 
		1161.73,1619.002 	"/>
	<polygon fill="#F4F4F4" points="1251.961,1858.551 1174.071,1903.522 1096.178,1858.551 1096.178,1768.61 1174.071,1723.639 
		1251.961,1768.61 	"/>
	<polygon fill="#F4F4F4" points="1339.04,1708.943 1261.147,1753.916 1183.255,1708.943 1183.255,1619.002 1261.147,1574.03 
		1339.04,1619.002 	"/>
	<polygon fill="#F4F4F4" points="1959.061,1858.551 1881.169,1903.522 1803.276,1858.551 1803.276,1768.61 1881.169,1723.639 
		1959.061,1768.61 	"/>
	<polygon fill="#F4F4F4" points="1781.75,1858.551 1703.859,1903.522 1625.966,1858.551 1625.966,1768.61 1703.859,1723.639 
		1781.75,1768.61 	"/>
	<polygon fill="#F4F4F4" points="2665.888,1858.552 2587.993,1903.521 2510.101,1858.552 2510.101,1768.609 2587.993,1723.64 
		2665.888,1768.609 	"/>
	<polygon fill="#F4F4F4" points="2224.299,1709.995 2146.409,1754.965 2068.517,1709.995 2068.517,1620.053 2146.409,1575.083 
		2224.299,1620.053 	"/>
	<polygon fill="#F4F4F4" points="2310.558,1560.387 2232.663,1605.359 2154.771,1560.387 2154.771,1470.445 2232.663,1425.474 
		2310.558,1470.445 	"/>
	<polygon fill="#F4F4F4" points="2400.788,1709.994 2322.897,1754.966 2245.005,1709.994 2245.005,1620.054 2322.897,1575.082 
		2400.788,1620.054 	"/>
	<polygon fill="#F4F4F4" points="2487.866,1560.387 2409.974,1605.359 2332.082,1560.387 2332.082,1470.445 2409.974,1425.474 
		2487.866,1470.445 	"/>
	<polygon fill="#F4F4F4" points="2487.866,1858.551 2409.976,1903.522 2332.083,1858.551 2332.083,1768.61 2409.976,1723.639 
		2487.866,1768.61 	"/>
	<polygon fill="#F4F4F4" points="2754.075,1709.994 2676.181,1754.966 2598.29,1709.994 2598.29,1620.053 2676.181,1575.082 
		2754.075,1620.053 	"/>
	<polygon fill="#F4F4F4" points="2310.556,1858.551 2232.665,1903.522 2154.772,1858.551 2154.772,1768.61 2232.665,1723.639 
		2310.556,1768.61 	"/>
	<polygon fill="#F4F4F4" points="374.932,1559.861 297.039,1604.831 219.146,1559.861 219.146,1469.919 297.039,1424.949 
		374.932,1469.919 	"/>
	<polygon fill="#F4F4F4" points="285.734,1411.303 207.844,1456.272 129.952,1411.303 129.952,1321.36 207.844,1276.391 
		285.734,1321.36 	"/>
	<polygon fill="#F4F4F4" points="197.294,665.144 119.401,710.116 41.508,665.144 41.508,575.202 119.401,530.23 197.294,575.202 	
		"/>
	<polygon fill="#F4F4F4" points="285.735,1708.944 207.843,1753.914 129.95,1708.944 129.95,1619.002 207.843,1574.032 
		285.735,1619.002 	"/>
	<polygon fill="#F4F4F4" points="196.088,1262.481 118.198,1307.453 40.305,1262.481 40.305,1172.541 118.198,1127.569 
		196.088,1172.541 	"/>
	<polygon fill="#F4F4F4" points="197.266,1858.551 119.375,1903.522 41.483,1858.551 41.483,1768.61 119.375,1723.639 
		197.266,1768.61 	"/>
	<polygon fill="#F4F4F4" points="373.923,1858.551 296.029,1903.522 218.138,1858.551 218.138,1768.609 296.029,1723.639 
		373.923,1768.609 	"/>
	<polygon fill="#F4F4F4" points="195.053,963.791 117.163,1008.763 39.269,963.791 39.269,873.851 117.163,828.879 195.053,873.851 
			"/>
	<polygon fill="#F4F4F4" points="3017.64,366.981 2939.746,411.951 2861.854,366.981 2861.854,277.039 2939.746,232.069 
		3017.64,277.039 	"/>
	<polygon fill="#F4F4F4" points="2576.051,218.425 2498.162,263.395 2420.27,218.425 2420.27,128.482 2498.162,83.513 
		2576.051,128.482 	"/>
	<polygon fill="#F4F4F4" points="2574.877,516.588 2496.983,561.561 2419.091,516.588 2419.091,426.646 2496.983,381.675 
		2574.877,426.646 	"/>
	<polygon fill="#F4F4F4" points="2930.207,516.589 2852.314,561.559 2774.421,516.589 2774.421,426.646 2852.314,381.677 
		2930.207,426.646 	"/>
	<polygon fill="#F4F4F4" points="2752.54,218.424 2674.65,263.396 2596.758,218.424 2596.758,128.483 2674.65,83.512 
		2752.54,128.483 	"/>
	<polygon fill="#F4F4F4" points="2752.187,516.588 2674.294,561.561 2596.401,516.588 2596.401,426.646 2674.294,381.675 
		2752.187,426.646 	"/>
	<polygon fill="#F4F4F4" points="2662.309,366.98 2584.418,411.952 2506.524,366.98 2506.524,277.04 2584.418,232.068 
		2662.309,277.04 	"/>
	<polygon fill="#F4F4F4" points="2840.774,1560.385 2762.881,1605.354 2684.988,1560.385 2684.988,1470.442 2762.881,1425.473 
		2840.774,1470.442 	"/>
	<polygon fill="#F4F4F4" points="2664.281,964.58 2586.393,1009.55 2508.5,964.58 2508.5,874.638 2586.393,829.668 
		2664.281,874.638 	"/>
	<polygon fill="#F4F4F4" points="2750.54,814.972 2672.646,859.944 2594.754,814.972 2594.754,725.03 2672.646,680.059 
		2750.54,725.03 	"/>
	<polygon fill="#F4F4F4" points="2840.774,1262.221 2762.882,1307.19 2684.988,1262.221 2684.988,1172.278 2762.882,1127.309 
		2840.774,1172.278 	"/>
	<polygon fill="#F4F4F4" points="2840.771,964.579 2762.881,1009.551 2684.988,964.579 2684.988,874.639 2762.881,829.667 
		2840.771,874.639 	"/>
	<polygon fill="#F4F4F4" points="2927.85,1113.136 2849.958,1158.107 2772.065,1113.136 2772.065,1023.195 2849.958,978.224 
		2927.85,1023.195 	"/>
	<polygon fill="#F4F4F4" points="2754.074,1410.776 2676.181,1455.748 2598.289,1410.776 2598.289,1320.835 2676.181,1275.864 
		2754.074,1320.835 	"/>
	<polygon fill="#F4F4F4" points="2750.539,1113.136 2672.648,1158.107 2594.755,1113.136 2594.755,1023.195 2672.648,978.224 
		2750.539,1023.195 	"/>
	<polygon fill="#F4F4F4" points="2840.774,666.196 2762.881,711.166 2684.988,666.196 2684.988,576.254 2762.881,531.284 
		2840.774,576.254 	"/>
	<polygon fill="#F4F4F4" points="2840.77,1859.078 2762.881,1904.048 2684.988,1859.078 2684.988,1769.136 2762.881,1724.166 
		2840.77,1769.136 	"/>
	<polygon fill="#F4F4F4" points="2927.028,1709.47 2849.135,1754.442 2771.242,1709.47 2771.242,1619.528 2849.135,1574.557 
		2927.028,1619.528 	"/>
	<polygon fill="#F4F4F4" points="3017.261,666.196 2939.368,711.166 2861.475,666.196 2861.475,576.254 2939.368,531.284 
		3017.261,576.254 	"/>
	<polygon fill="#F4F4F4" points="3017.259,1859.077 2939.369,1904.049 2861.477,1859.077 2861.477,1769.137 2939.369,1724.165 
		3017.259,1769.137 	"/>
	<polygon fill="#F4F4F4" points="3017.403,1560.389 2939.511,1605.361 2861.618,1560.389 2861.618,1470.447 2939.511,1425.476 
		3017.403,1470.447 	"/>
	<polygon fill="#F4F4F4" points="3017.403,1262.22 2939.51,1307.191 2861.618,1262.22 2861.618,1172.278 2939.51,1127.308 
		3017.403,1172.278 	"/>
	<polygon fill="#F4F4F4" points="2926.672,1410.776 2848.781,1455.748 2770.888,1410.776 2770.888,1320.836 2848.781,1275.864 
		2926.672,1320.836 	"/>
</g>
<g id="Layer_2">
</g>
</svg>
