<?xml version="1.0" encoding="utf-8"?>
<!-- Generator: Adobe Illustrator 16.0.0, SVG Export Plug-In . SVG Version: 6.00 Build 0)  -->
<!DOCTYPE svg PUBLIC "-//W3C//DTD SVG 1.1//EN" "http://www.w3.org/Graphics/SVG/1.1/DTD/svg11.dtd">
<svg version="1.1" id="Layer_1" xmlns="http://www.w3.org/2000/svg" xmlns:xlink="http://www.w3.org/1999/xlink" x="0px" y="0px"
	 width="304.065px" height="323.578px" viewBox="0 0 304.065 323.578" enable-background="new 0 0 304.065 323.578"
	 xml:space="preserve">
<polygon id="backgroundHex" fill="none" points="29.189,93.445 150.95,23.14 272.737,93.445 272.737,234.068 150.95,304.374 29.189,234.068 "/>
<g>
	<polygon stroke="#000000" stroke-width="8.7867" stroke-linecap="round" stroke-linejoin="round" stroke-miterlimit="10" points="
		89.416,116.876 76.125,93.761 96.114,105.317 102.918,93.743 109.588,105.312 129.569,92.81 116.257,116.955 	"/>
	
		<polygon fill="none" stroke="#000000" stroke-width="8.7867" stroke-linecap="round" stroke-linejoin="round" stroke-miterlimit="10" points="
		89.416,140.173 116.122,140.173 129.569,163.285 116.144,186.184 89.416,186.184 76.155,163.285 	"/>
	
		<polygon fill="none" stroke="#000000" stroke-width="8.7867" stroke-linecap="round" stroke-linejoin="round" stroke-miterlimit="10" points="
		223.079,232.539 189.652,174.849 176.284,174.849 169.75,163.143 129.569,163.285 116.144,186.184 136.133,220.893 
		149.602,220.817 156.191,232.539 	"/>
	
		<polygon fill="none" stroke="#000000" stroke-width="8.7867" stroke-linecap="round" stroke-linejoin="round" stroke-miterlimit="10" points="
		163.056,104.881 182.981,140.037 169.75,163.143 156.36,163.143 142.935,140.037 	"/>
	
		<polygon fill="none" stroke="#000000" stroke-width="8.7867" stroke-linecap="round" stroke-linejoin="round" stroke-miterlimit="10" points="
		223.079,140.037 203.102,174.745 176.284,174.849 169.75,163.143 182.981,140.037 	"/>
	
		<line fill="none" stroke="#000000" stroke-width="8.7867" stroke-linecap="round" stroke-linejoin="round" stroke-miterlimit="10" x1="156.36" y1="163.143" x2="129.569" y2="209.498"/>
	
		<line fill="none" stroke="#000000" stroke-width="8.7867" stroke-linecap="round" stroke-linejoin="round" stroke-miterlimit="10" x1="176.284" y1="174.849" x2="149.602" y2="220.817"/>
	
		<line fill="none" stroke="#000000" stroke-width="8.7867" stroke-linecap="round" stroke-linejoin="round" stroke-miterlimit="10" x1="203.102" y1="198.059" x2="183.06" y2="232.539"/>
</g>
</svg>
