<?xml version="1.0" encoding="utf-8"?>
<!-- Generator: Adobe Illustrator 16.0.0, SVG Export Plug-In . SVG Version: 6.00 Build 0)  -->
<!DOCTYPE svg PUBLIC "-//W3C//DTD SVG 1.1//EN" "http://www.w3.org/Graphics/SVG/1.1/DTD/svg11.dtd">
<svg version="1.1" id="Layer_1" xmlns="http://www.w3.org/2000/svg" xmlns:xlink="http://www.w3.org/1999/xlink" x="0px" y="0px"
	 width="304.06px" height="323.58px" viewBox="0 0 304.06 323.58" enable-background="new 0 0 304.06 323.58" xml:space="preserve">
<polygon id="backgroundHex" fill="none" points="274.823,232.582 153.054,302.886 31.275,232.582 31.275,91.965 153.054,21.667 274.823,91.965 "/>
<g>
	
		<polygon fill="none" stroke="#000000" stroke-width="8.7864" stroke-linecap="round" stroke-linejoin="round" stroke-miterlimit="10" points="
		128.049,161.188 101.313,161.003 81.356,126.694 134.592,126.694 141.273,138.023 	"/>
	<polygon stroke="#000000" stroke-width="8.7864" stroke-linecap="round" stroke-linejoin="round" stroke-miterlimit="10" points="
		141.273,138.023 168.199,138.023 181.371,161.134 167.98,184.349 141.273,184.349 128.049,161.188 	"/>
	
		<polygon fill="none" stroke="#000000" stroke-width="8.7864" stroke-linecap="round" stroke-linejoin="round" stroke-miterlimit="10" points="
		141.273,138.023 128.049,115.125 148.132,80.369 174.676,125.118 168.199,138.023 	"/>
	
		<polygon fill="none" stroke="#000000" stroke-width="8.7864" stroke-linecap="round" stroke-linejoin="round" stroke-miterlimit="10" points="
		141.273,184.349 128.049,207.541 88.051,207.541 114.646,161.003 128.049,161.188 	"/>
	
		<polygon fill="none" stroke="#000000" stroke-width="8.7864" stroke-linecap="round" stroke-linejoin="round" stroke-miterlimit="10" points="
		167.98,184.349 181.371,207.405 161.335,242.249 134.592,195.891 141.273,184.349 	"/>
	
		<polygon fill="none" stroke="#000000" stroke-width="8.7864" stroke-linecap="round" stroke-linejoin="round" stroke-miterlimit="10" points="
		181.371,161.134 194.902,161.069 208.293,161.003 228.22,195.809 174.894,196.25 167.98,184.349 	"/>
	
		<polygon fill="none" stroke="#000000" stroke-width="8.7864" stroke-linecap="round" stroke-linejoin="round" stroke-miterlimit="10" points="
		221.579,115.125 181.371,115.125 168.199,138.023 181.371,161.134 194.902,161.069 	"/>
</g>
</svg>
