<?xml version="1.0" encoding="utf-8"?>
<!-- Generator: Adobe Illustrator 16.0.0, SVG Export Plug-In . SVG Version: 6.00 Build 0)  -->
<!DOCTYPE svg PUBLIC "-//W3C//DTD SVG 1.1//EN" "http://www.w3.org/Graphics/SVG/1.1/DTD/svg11.dtd">
<svg version="1.1" id="Layer_1" xmlns="http://www.w3.org/2000/svg" xmlns:xlink="http://www.w3.org/1999/xlink" x="0px" y="0px"
	 width="304.06px" height="323.58px" viewBox="0 0 304.06 323.58" enable-background="new 0 0 304.06 323.58" xml:space="preserve">
<polygon id="backgroundHex" fill="none" points="274.823,232.612 153.054,302.931 31.275,232.612 31.275,91.991 153.054,21.697 274.823,91.991 "/>
<g>
	
		<polygon fill="none" stroke="#000000" stroke-width="8.7866" stroke-linecap="round" stroke-linejoin="round" stroke-miterlimit="10" points="
		61.358,160.971 141.425,160.971 148.118,172.535 128.03,207.456 74.692,207.435 54.666,172.753 	"/>
	
		<polygon fill="none" stroke="#000000" stroke-width="8.7866" stroke-linecap="round" stroke-linejoin="round" stroke-miterlimit="10" points="
		254.909,172.535 248.22,161.157 141.425,160.971 148.118,172.535 141.425,184.394 248.144,184.394 	"/>
	
		<polygon fill="none" stroke="#000000" stroke-width="8.7866" stroke-linecap="round" stroke-linejoin="round" stroke-miterlimit="10" points="
		101.396,115.01 127.918,115.01 141.313,137.86 128.03,161.157 101.301,161.157 87.959,138.083 	"/>
	<polygon stroke="#000000" stroke-width="8.7866" stroke-linecap="round" stroke-linejoin="round" stroke-miterlimit="10" points="
		67.923,126.607 54.666,149.479 61.358,160.971 100.666,160.061 87.959,138.083 94.712,126.492 	"/>
</g>
</svg>
