<?xml version="1.0" encoding="utf-8"?>
<!-- Generator: Adobe Illustrator 16.0.0, SVG Export Plug-In . SVG Version: 6.00 Build 0)  -->
<!DOCTYPE svg PUBLIC "-//W3C//DTD SVG 1.1//EN" "http://www.w3.org/Graphics/SVG/1.1/DTD/svg11.dtd">
<svg version="1.1" id="Layer_1" xmlns="http://www.w3.org/2000/svg" xmlns:xlink="http://www.w3.org/1999/xlink" x="0px" y="0px"
	 viewBox="0 0 304.06 323.58" enable-background="new 0 0 304.06 323.58" xml:space="preserve">
<polygon id="backgroundHex" fill="none" points="31.226,91.972 152.986,21.661 274.774,91.972 274.774,232.594 152.986,302.894 31.226,232.594 "/>
<g>
	
		<polyline fill="none" stroke="#000000" stroke-width="8.7867" stroke-linecap="round" stroke-linejoin="round" stroke-miterlimit="10" points="
		94.506,149.04 101.205,137.655 94.374,126.113 54.49,126.113 47.738,137.492 54.302,149.04 	"/>
	
		<polyline fill="none" stroke="#000000" stroke-width="8.7867" stroke-linecap="round" stroke-linejoin="round" stroke-miterlimit="10" points="
		54.302,172.468 94.506,172.468 101.205,160.822 94.506,149.04 54.302,149.04 47.738,160.609 54.302,172.468 	"/>
	
		<polyline fill="none" stroke="#000000" stroke-width="8.7867" stroke-linecap="round" stroke-linejoin="round" stroke-miterlimit="10" points="
		94.506,172.468 101.205,184.031 94.506,195.442 54.302,195.601 47.738,184.031 54.302,172.468 	"/>
	
		<polyline fill="none" stroke="#000000" stroke-width="8.7867" stroke-linecap="round" stroke-linejoin="round" stroke-miterlimit="10" points="
		174.705,172.369 181.406,160.991 174.574,149.443 134.69,149.443 127.938,160.833 134.502,172.369 	"/>
	<polyline stroke="#000000" stroke-width="8.7867" stroke-linecap="round" stroke-linejoin="round" stroke-miterlimit="10" points="
		134.502,195.797 174.705,195.797 181.406,184.151 174.705,172.369 134.502,172.369 127.938,183.938 134.502,195.797 	"/>
	
		<polyline fill="none" stroke="#000000" stroke-width="8.7867" stroke-linecap="round" stroke-linejoin="round" stroke-miterlimit="10" points="
		174.705,195.797 181.406,207.367 174.705,218.778 134.502,218.937 127.938,207.367 134.502,195.797 	"/>
	
		<polyline fill="none" stroke="#000000" stroke-width="8.7867" stroke-linecap="round" stroke-linejoin="round" stroke-miterlimit="10" points="
		254.743,148.931 261.44,137.552 254.612,126.01 214.729,126.01 207.975,137.388 214.538,148.931 	"/>
	
		<polyline fill="none" stroke="#000000" stroke-width="8.7867" stroke-linecap="round" stroke-linejoin="round" stroke-miterlimit="10" points="
		214.538,172.358 254.743,172.358 261.44,160.712 254.743,148.931 214.538,148.931 207.975,160.5 214.538,172.358 	"/>
	
		<polyline fill="none" stroke="#000000" stroke-width="8.7867" stroke-linecap="round" stroke-linejoin="round" stroke-miterlimit="10" points="
		254.743,172.358 261.44,183.928 254.743,195.339 214.538,195.497 207.975,183.928 214.538,172.358 	"/>
</g>
</svg>
