<?xml version="1.0" encoding="utf-8"?>
<!-- Generator: Adobe Illustrator 16.0.0, SVG Export Plug-In . SVG Version: 6.00 Build 0)  -->
<!DOCTYPE svg PUBLIC "-//W3C//DTD SVG 1.1//EN" "http://www.w3.org/Graphics/SVG/1.1/DTD/svg11.dtd">
<svg version="1.1" id="Layer_1" xmlns="http://www.w3.org/2000/svg" xmlns:xlink="http://www.w3.org/1999/xlink" x="0px" y="0px"
	 width="653.658px" height="295.936px" viewBox="0 0 653.658 295.936" enable-background="new 0 0 653.658 295.936"
	 xml:space="preserve">
<g>
	<g>
		<path d="M179.707,228.948v-94.933h25.584c4.823,0,9.236,0.433,13.241,1.303c4.002,0.864,7.429,2.218,10.272,4.048
			c2.846,1.835,5.068,4.224,6.66,7.168c1.593,2.939,2.387,6.486,2.387,10.632c0,4.729-1.183,8.999-3.546,12.811
			c-2.364,3.812-5.812,6.441-10.347,7.883v0.58c5.789,1.063,10.467,3.475,14.036,7.238c3.569,3.76,5.357,8.92,5.357,15.482
			c0,4.633-0.87,8.686-2.607,12.16c-1.735,3.469-4.196,6.367-7.379,8.68c-3.184,2.317-6.999,4.051-11.434,5.213
			c-4.437,1.154-9.311,1.734-14.615,1.734H179.707z M189.082,174.39h14.038c8.104,0,13.94-1.396,17.511-4.196
			c3.568-2.798,5.354-6.606,5.354-11.433c0-5.498-1.859-9.405-5.571-11.724c-3.716-2.312-9.287-3.472-16.717-3.472h-14.615V174.39z
			 M189.082,219.396h16.497c8.201,0,14.568-1.521,19.104-4.561c4.532-3.032,6.801-7.74,6.801-14.107
			c0-5.881-2.221-10.2-6.656-12.955c-4.438-2.742-10.854-4.119-19.249-4.119h-16.497V219.396z"/>
		<path d="M262.165,228.948v-94.933h54.704v10.128h-42.692v29.814h36.034v10.274h-36.034v34.44h44.138v10.275H262.165z"/>
		<path d="M338.429,228.948v-94.933h54.705v10.128h-42.69v29.814h36.032v10.274h-36.032v34.44h44.137v10.275H338.429z"/>
		<path d="M402.104,228.948l32.129-94.933h13.602l32.128,94.933h-12.88l-8.973-28.943h-34.587l-9.119,28.943H402.104z
			 M431.049,175.835l-4.487,14.474h28.51l-4.485-14.474c-1.736-5.304-3.379-10.586-4.922-15.844
			c-1.543-5.257-3.087-10.636-4.631-16.136h-0.58c-1.446,5.5-2.941,10.879-4.484,16.136
			C434.424,165.249,432.785,170.531,431.049,175.835z"/>
		<path d="M493.42,228.948v-94.933h29.666c4.823,0,9.285,0.456,13.387,1.375c4.1,0.914,7.621,2.435,10.564,4.555
			c2.942,2.124,5.234,4.875,6.874,8.252c1.64,3.377,2.459,7.524,2.459,12.442c0,7.434-1.93,13.363-5.785,17.801
			c-3.862,4.438-9.071,7.479-15.63,9.116l24.165,41.392h-13.602l-22.865-40.089h-17.221v40.089H493.42z M505.433,179.021h15.918
			c7.428,0,13.119-1.519,17.077-4.558c3.954-3.039,5.933-7.647,5.933-13.824c0-6.27-1.979-10.656-5.933-13.168
			c-3.958-2.504-9.649-3.763-17.077-3.763h-15.918V179.021z"/>
		<path d="M591.102,228.948V192.19l-28.509-58.175h12.879l12.303,26.773c1.543,3.471,3.038,6.896,4.485,10.271
			c1.447,3.381,2.99,6.851,4.632,10.424h0.579c1.641-3.573,3.278-7.043,4.92-10.424c1.64-3.375,3.183-6.801,4.632-10.271
			l12.156-26.773h12.59l-28.508,58.175v36.758H591.102z"/>
	</g>
	
		<polygon fill="none" stroke="#000000" stroke-width="10.5428" stroke-linecap="round" stroke-linejoin="round" stroke-miterlimit="10" points="
		183.995,225.673 107.137,270.054 30.274,225.673 30.274,136.927 107.137,92.55 183.995,136.927 	"/>
	
		<rect x="30.818" y="175.272" stroke="#000000" stroke-width="2.4404" stroke-linecap="round" stroke-linejoin="round" stroke-miterlimit="10" width="150.384" height="10.447"/>
	
		<rect x="33.505" y="211.054" stroke="#000000" stroke-width="2.4288" stroke-linecap="round" stroke-linejoin="round" stroke-miterlimit="10" width="148.954" height="10.448"/>
	
		<polygon fill="none" stroke="#000000" stroke-width="10.5428" stroke-linecap="round" stroke-linejoin="round" stroke-miterlimit="10" points="
		121.506,76.61 137.431,34.769 151.953,68.458 178.354,61.171 184.06,85.95 221.92,80.973 194.907,118.451 	"/>
</g>
</svg>
