<?xml version="1.0" encoding="utf-8"?>
<!-- Generator: Adobe Illustrator 16.0.0, SVG Export Plug-In . SVG Version: 6.00 Build 0)  -->
<!DOCTYPE svg PUBLIC "-//W3C//DTD SVG 1.1//EN" "http://www.w3.org/Graphics/SVG/1.1/DTD/svg11.dtd">
<svg version="1.1" id="Layer_1" xmlns="http://www.w3.org/2000/svg" xmlns:xlink="http://www.w3.org/1999/xlink" x="0px" y="0px"
	 width="304.06px" height="323.58px" viewBox="0 0 304.06 323.58" enable-background="new 0 0 304.06 323.58" xml:space="preserve">
<polygon id="backgroundHex" fill="none" points="30.315,91.972 152.085,21.666 273.865,91.972 273.865,232.594 152.085,302.889 30.315,232.594 "/>
<g>
	
		<polyline fill="none" stroke="#000000" stroke-width="8.7867" stroke-linecap="round" stroke-linejoin="round" stroke-miterlimit="10" points="
		181.167,115.062 194.427,115.007 201.122,126.604 194.427,138.119 	"/>
	
		<polyline fill="none" stroke="#000000" stroke-width="8.7867" stroke-linecap="round" stroke-linejoin="round" stroke-miterlimit="10" points="
		194.427,92.157 207.845,92.157 227.8,126.604 221.24,138.119 	"/>
	
		<polygon fill="none" stroke="#000000" stroke-width="8.7867" stroke-linecap="round" stroke-linejoin="round" stroke-miterlimit="10" points="
		94.241,149.765 160.912,149.765 167.61,161.28 160.912,172.876 167.61,184.473 160.912,196.124 167.61,207.64 160.912,219.285 
		94.322,219.285 87.574,207.721 94.322,196.124 87.548,184.446 94.322,172.931 87.574,161.28 	"/>
	
		<polyline fill="none" stroke="#000000" stroke-width="8.7867" stroke-linecap="round" stroke-linejoin="round" stroke-miterlimit="10" points="
		107.583,126.604 121.004,149.765 134.395,149.71 147.733,126.604 	"/>
	<polygon stroke="#000000" stroke-width="8.7867" stroke-linecap="round" stroke-linejoin="round" stroke-miterlimit="10" points="
		121.189,172.941 134.498,172.941 141.037,184.517 134.498,196.113 121.052,196.113 114.358,184.544 	"/>
</g>
</svg>
