<?xml version="1.0" encoding="utf-8"?>
<!-- Generator: Adobe Illustrator 16.0.0, SVG Export Plug-In . SVG Version: 6.00 Build 0)  -->
<!DOCTYPE svg PUBLIC "-//W3C//DTD SVG 1.1//EN" "http://www.w3.org/Graphics/SVG/1.1/DTD/svg11.dtd">
<svg version="1.1" id="Layer_1" xmlns="http://www.w3.org/2000/svg" xmlns:xlink="http://www.w3.org/1999/xlink" x="0px" y="0px"
	 width="304.06px" height="323.58px" viewBox="0 0 304.06 323.58" enable-background="new 0 0 304.06 323.58" xml:space="preserve">
<polygon id="backgroundHex" fill="none" points="30.546,91.804 152.314,21.493 274.094,91.804 274.094,232.421 152.314,302.716 30.546,232.421 "/>
<g>
	
		<polygon fill="none" stroke="#000000" stroke-width="8.7867" stroke-linecap="round" stroke-linejoin="round" stroke-miterlimit="10" points="
		102.202,74.268 142.345,74.21 162.412,108.894 142.25,143.502 102.202,143.502 82.319,108.856 	"/>
	
		<polygon fill="none" stroke="#000000" stroke-width="8.7867" stroke-linecap="round" stroke-linejoin="round" stroke-miterlimit="10" points="
		202.428,109.033 162.412,108.894 142.25,143.502 162.412,178.286 202.428,178.286 222.361,143.592 	"/>
	<polygon stroke="#000000" stroke-width="8.7867" stroke-linecap="round" stroke-linejoin="round" stroke-miterlimit="10" points="
		122.232,108.856 128.93,98.486 117.118,74.21 102.202,74.268 95.503,85.924 108.868,109.033 	"/>
	<polygon stroke="#000000" stroke-width="8.7867" stroke-linecap="round" stroke-linejoin="round" stroke-miterlimit="10" points="
		242.479,178.286 249.208,166.641 235.759,143.592 222.361,143.592 215.883,155.044 229.195,178.286 	"/>
	
		<polygon fill="none" stroke="#000000" stroke-width="8.7867" stroke-linecap="round" stroke-linejoin="round" stroke-miterlimit="10" points="
		142.345,213.014 162.412,247.834 202.428,247.834 222.579,213.014 202.428,178.286 162.412,178.286 	"/>
	
		<polygon fill="none" stroke="#000000" stroke-width="8.7867" stroke-linecap="round" stroke-linejoin="round" stroke-miterlimit="10" points="
		82.163,178.15 102.202,143.502 142.25,143.502 162.412,178.286 142.345,213.014 102.332,212.886 	"/>
	<polygon stroke="#000000" stroke-width="8.7867" stroke-linecap="round" stroke-linejoin="round" stroke-miterlimit="10" points="
		68.933,224.51 88.975,189.881 102.332,212.886 88.967,236.237 75.625,236.079 	"/>
</g>
</svg>
