<?xml version="1.0" encoding="utf-8"?>
<!-- Generator: Adobe Illustrator 16.0.0, SVG Export Plug-In . SVG Version: 6.00 Build 0)  -->
<!DOCTYPE svg PUBLIC "-//W3C//DTD SVG 1.1//EN" "http://www.w3.org/Graphics/SVG/1.1/DTD/svg11.dtd">
<svg version="1.1" id="Layer_1" xmlns="http://www.w3.org/2000/svg" xmlns:xlink="http://www.w3.org/1999/xlink" x="0px" y="0px"
	 width="304.06px" height="323.58px" viewBox="0 0 304.06 323.58" enable-background="new 0 0 304.06 323.58" xml:space="preserve">
<polygon id="backgroundHex" fill="none" points="274.659,232.579 152.895,302.885 31.111,232.579 31.111,91.968 152.895,21.668 274.659,91.968 "/>
<g>
	<polygon stroke="#000000" stroke-width="8.7867" stroke-linecap="round" stroke-linejoin="round" stroke-miterlimit="10" points="
		97.083,90.97 110.444,90.97 117.12,102.534 110.34,113.869 96.972,113.869 90.279,102.534 	"/>
	
		<line fill="none" stroke="#000000" stroke-width="8.7867" stroke-linecap="round" stroke-linejoin="round" stroke-miterlimit="10" x1="90.279" y1="79.292" x2="97.083" y2="90.97"/>
	
		<line fill="none" stroke="#000000" stroke-width="8.7867" stroke-linecap="round" stroke-linejoin="round" stroke-miterlimit="10" x1="116.982" y1="79.423" x2="110.444" y2="90.97"/>
	<polygon stroke="#000000" stroke-width="8.7867" stroke-linecap="round" stroke-linejoin="round" stroke-miterlimit="10" points="
		177.142,90.889 190.502,90.889 197.178,102.453 190.401,113.788 177.032,113.788 170.337,102.453 	"/>
	
		<line fill="none" stroke="#000000" stroke-width="8.7867" stroke-linecap="round" stroke-linejoin="round" stroke-miterlimit="10" x1="170.337" y1="79.21" x2="177.142" y2="90.889"/>
	
		<line fill="none" stroke="#000000" stroke-width="8.7867" stroke-linecap="round" stroke-linejoin="round" stroke-miterlimit="10" x1="197.042" y1="79.346" x2="190.502" y2="90.889"/>
	
		<polygon fill="none" stroke="#000000" stroke-width="8.7867" stroke-linecap="round" stroke-linejoin="round" stroke-miterlimit="10" points="
		230.61,160.306 243.969,160.306 250.645,171.864 243.865,183.199 230.507,183.199 223.804,171.864 	"/>
	
		<line fill="none" stroke="#000000" stroke-width="8.7867" stroke-linecap="round" stroke-linejoin="round" stroke-miterlimit="10" x1="223.804" y1="148.627" x2="230.61" y2="160.306"/>
	
		<line fill="none" stroke="#000000" stroke-width="8.7867" stroke-linecap="round" stroke-linejoin="round" stroke-miterlimit="10" x1="250.506" y1="148.758" x2="243.969" y2="160.306"/>
	
		<polygon fill="none" stroke="#000000" stroke-width="8.7867" stroke-linecap="round" stroke-linejoin="round" stroke-miterlimit="10" points="
		150.576,160.437 163.937,160.437 170.612,172 163.833,183.335 150.474,183.335 143.771,172 	"/>
	
		<line fill="none" stroke="#000000" stroke-width="8.7867" stroke-linecap="round" stroke-linejoin="round" stroke-miterlimit="10" x1="143.771" y1="148.758" x2="150.576" y2="160.437"/>
	
		<line fill="none" stroke="#000000" stroke-width="8.7867" stroke-linecap="round" stroke-linejoin="round" stroke-miterlimit="10" x1="170.474" y1="148.889" x2="163.937" y2="160.437"/>
	<g>
		<polygon stroke="#000000" stroke-width="8.7867" stroke-linecap="round" stroke-linejoin="round" stroke-miterlimit="10" points="
			70.372,160.125 83.732,160.125 90.407,171.695 83.629,183.03 70.268,183.03 63.567,171.695 		"/>
		
			<line stroke="#000000" stroke-width="8.7867" stroke-linecap="round" stroke-linejoin="round" stroke-miterlimit="10" x1="63.567" y1="148.447" x2="70.372" y2="160.125"/>
		
			<line stroke="#000000" stroke-width="8.7867" stroke-linecap="round" stroke-linejoin="round" stroke-miterlimit="10" x1="90.271" y1="148.589" x2="83.732" y2="160.125"/>
	</g>
	<g>
		
			<polygon fill="none" stroke="#000000" stroke-width="8.7867" stroke-linecap="round" stroke-linejoin="round" stroke-miterlimit="10" points="
			110.366,229.848 123.727,229.848 130.403,241.412 123.625,252.747 110.256,252.747 103.562,241.412 		"/>
		
			<line fill="none" stroke="#000000" stroke-width="8.7867" stroke-linecap="round" stroke-linejoin="round" stroke-miterlimit="10" x1="103.562" y1="218.169" x2="110.366" y2="229.848"/>
		
			<line fill="none" stroke="#000000" stroke-width="8.7867" stroke-linecap="round" stroke-linejoin="round" stroke-miterlimit="10" x1="130.265" y1="218.306" x2="123.727" y2="229.848"/>
	</g>
	<g>
		
			<polygon fill="none" stroke="#000000" stroke-width="8.7867" stroke-linecap="round" stroke-linejoin="round" stroke-miterlimit="10" points="
			190.622,229.984 203.982,229.984 210.658,241.548 203.879,252.883 190.521,252.883 183.817,241.548 		"/>
		
			<line fill="none" stroke="#000000" stroke-width="8.7867" stroke-linecap="round" stroke-linejoin="round" stroke-miterlimit="10" x1="183.817" y1="218.306" x2="190.622" y2="229.984"/>
		
			<line fill="none" stroke="#000000" stroke-width="8.7867" stroke-linecap="round" stroke-linejoin="round" stroke-miterlimit="10" x1="210.52" y1="218.437" x2="203.982" y2="229.984"/>
	</g>
</g>
</svg>
