<?xml version="1.0" encoding="utf-8"?>
<!-- Generator: Adobe Illustrator 16.0.0, SVG Export Plug-In . SVG Version: 6.00 Build 0)  -->
<!DOCTYPE svg PUBLIC "-//W3C//DTD SVG 1.1//EN" "http://www.w3.org/Graphics/SVG/1.1/DTD/svg11.dtd">
<svg version="1.1" id="Layer_1" xmlns="http://www.w3.org/2000/svg" xmlns:xlink="http://www.w3.org/1999/xlink" x="0px" y="0px"
	 viewBox="0 0 304.06 323.58" enable-background="new 0 0 304.06 323.58" xml:space="preserve">
<polygon id="backgroundHex" fill="none" points="30.516,91.973 152.287,21.665 274.063,91.973 274.063,232.595 152.287,302.889 30.516,232.595 "/>
<g>
	
		<polygon fill="none" stroke="#000000" stroke-width="8.7866" stroke-linecap="round" stroke-linejoin="round" stroke-miterlimit="10" points="
		142.462,62.995 155.771,62.995 162.309,74.564 155.771,86.161 142.324,86.161 135.631,74.592 	"/>
	<polygon stroke="#000000" stroke-width="8.7866" stroke-linecap="round" stroke-linejoin="round" stroke-miterlimit="10" points="
		162.497,97.687 175.806,97.687 182.346,109.256 175.806,120.853 162.36,120.853 155.668,109.284 	"/>
	
		<polygon fill="none" stroke="#000000" stroke-width="8.7866" stroke-linecap="round" stroke-linejoin="round" stroke-miterlimit="10" points="
		142.462,132.106 155.771,132.106 162.309,143.676 155.771,155.272 142.324,155.272 135.631,143.703 	"/>
	
		<polygon fill="none" stroke="#000000" stroke-width="8.7866" stroke-linecap="round" stroke-linejoin="round" stroke-miterlimit="10" points="
		162.497,166.939 175.806,166.939 182.346,178.515 175.806,190.105 162.36,190.105 155.668,178.536 	"/>
	
		<polygon fill="none" stroke="#000000" stroke-width="8.7866" stroke-linecap="round" stroke-linejoin="round" stroke-miterlimit="10" points="
		142.462,201.702 155.771,201.702 162.309,213.271 155.771,224.869 142.324,224.869 135.631,213.299 	"/>
	
		<polygon fill="none" stroke="#000000" stroke-width="8.7866" stroke-linecap="round" stroke-linejoin="round" stroke-miterlimit="10" points="
		162.601,236.465 175.909,236.465 182.449,248.035 175.909,259.632 162.461,259.632 155.771,248.063 	"/>
	
		<line fill="none" stroke="#000000" stroke-width="8.7866" stroke-linecap="round" stroke-linejoin="round" stroke-miterlimit="10" x1="155.771" y1="62.995" x2="162.473" y2="51.404"/>
	
		<line fill="none" stroke="#000000" stroke-width="8.7866" stroke-linecap="round" stroke-linejoin="round" stroke-miterlimit="10" x1="155.771" y1="86.161" x2="162.497" y2="97.687"/>
	
		<line fill="none" stroke="#000000" stroke-width="8.7866" stroke-linecap="round" stroke-linejoin="round" stroke-miterlimit="10" x1="162.36" y1="120.853" x2="155.771" y2="132.106"/>
	
		<line fill="none" stroke="#000000" stroke-width="8.7866" stroke-linecap="round" stroke-linejoin="round" stroke-miterlimit="10" x1="155.771" y1="155.272" x2="162.497" y2="166.939"/>
	
		<line fill="none" stroke="#000000" stroke-width="8.7866" stroke-linecap="round" stroke-linejoin="round" stroke-miterlimit="10" x1="162.36" y1="190.105" x2="155.771" y2="201.702"/>
	
		<line fill="none" stroke="#000000" stroke-width="8.7866" stroke-linecap="round" stroke-linejoin="round" stroke-miterlimit="10" x1="155.771" y1="224.869" x2="162.601" y2="236.465"/>
	
		<line fill="none" stroke="#000000" stroke-width="8.7866" stroke-linecap="round" stroke-linejoin="round" stroke-miterlimit="10" x1="162.461" y1="259.632" x2="155.611" y2="271.212"/>
</g>
</svg>
